REM DIRINDEX 1\2,1\3,1\4,1\5
REM DIRNAME cjc044,folder01,folder02,folder03,folder04
TITLE ""
FILE "1800_055.mp3" MP3
  TRACK 01 AUDIO
    TITLE "2:cjc044_1317"
    INDEX 01 00:00:00
  TRACK 02 AUDIO
    TITLE "0:"
    INDEX 01 00:01:03
  TRACK 03 AUDIO
    TITLE "3:cjc044_1318"
    INDEX 01 00:01:66
  TRACK 04 AUDIO
    TITLE "0:"
    INDEX 01 00:02:57
  TRACK 05 AUDIO
    TITLE "4:cjc044_1319"
    INDEX 01 00:03:39
  TRACK 06 AUDIO
    TITLE "0:"
    INDEX 01 00:04:46
  TRACK 07 AUDIO
    TITLE "5:cjc044_1320"
    INDEX 01 00:05:26
  TRACK 08 AUDIO
    TITLE "0:"
    INDEX 01 00:08:60
  TRACK 09 AUDIO
    TITLE "2:cjc044_1321"
    INDEX 01 00:10:51
  TRACK 10 AUDIO
    TITLE "0:"
    INDEX 01 00:11:72
  TRACK 11 AUDIO
    TITLE "3:cjc044_1322"
    INDEX 01 00:12:50
  TRACK 12 AUDIO
    TITLE "0:"
    INDEX 01 00:13:57
  TRACK 13 AUDIO
    TITLE "4:cjc044_1323"
    INDEX 01 00:14:39
  TRACK 14 AUDIO
    TITLE "0:"
    INDEX 01 00:15:60
  TRACK 15 AUDIO
    TITLE "5:cjc044_1324"
    INDEX 01 00:16:36
  TRACK 16 AUDIO
    TITLE "0:"
    INDEX 01 00:19:60
  TRACK 17 AUDIO
    TITLE "2:cjc044_1325"
    INDEX 01 00:21:49
  TRACK 18 AUDIO
    TITLE "0:"
    INDEX 01 00:22:46
  TRACK 19 AUDIO
    TITLE "3:cjc044_1326"
    INDEX 01 00:23:26
  TRACK 20 AUDIO
    TITLE "0:"
    INDEX 01 00:24:18
  TRACK 21 AUDIO
    TITLE "4:cjc044_1327"
    INDEX 01 00:25:01
  TRACK 22 AUDIO
    TITLE "0:"
    INDEX 01 00:26:01
  TRACK 23 AUDIO
    TITLE "5:cjc044_1328"
    INDEX 01 00:26:52
  TRACK 24 AUDIO
    TITLE "0:"
    INDEX 01 00:30:03
  TRACK 25 AUDIO
    TITLE "2:cjc044_1329"
    INDEX 01 00:31:65
  TRACK 26 AUDIO
    TITLE "0:"
    INDEX 01 00:32:70
  TRACK 27 AUDIO
    TITLE "3:cjc044_1330"
    INDEX 01 00:33:52
  TRACK 28 AUDIO
    TITLE "0:"
    INDEX 01 00:34:45
  TRACK 29 AUDIO
    TITLE "4:cjc044_1331"
    INDEX 01 00:35:29
  TRACK 30 AUDIO
    TITLE "0:"
    INDEX 01 00:36:33
  TRACK 31 AUDIO
    TITLE "5:cjc044_1332"
    INDEX 01 00:37:10
  TRACK 32 AUDIO
    TITLE "0:"
    INDEX 01 00:40:72
  TRACK 33 AUDIO
    TITLE "2:cjc044_1333"
    INDEX 01 00:42:55
  TRACK 34 AUDIO
    TITLE "0:"
    INDEX 01 00:43:60
  TRACK 35 AUDIO
    TITLE "3:cjc044_1334"
    INDEX 01 00:44:46
  TRACK 36 AUDIO
    TITLE "0:"
    INDEX 01 00:45:69
  TRACK 37 AUDIO
    TITLE "4:cjc044_1335"
    INDEX 01 00:46:53
  TRACK 38 AUDIO
    TITLE "0:"
    INDEX 01 00:47:60
  TRACK 39 AUDIO
    TITLE "5:cjc044_1336"
    INDEX 01 00:48:40
  TRACK 40 AUDIO
    TITLE "0:"
    INDEX 01 00:52:55
  TRACK 41 AUDIO
    TITLE "2:cjc044_1337"
    INDEX 01 00:54:36
  TRACK 42 AUDIO
    TITLE "0:"
    INDEX 01 00:55:63
  TRACK 43 AUDIO
    TITLE "3:cjc044_1338"
    INDEX 01 00:56:45
  TRACK 44 AUDIO
    TITLE "0:"
    INDEX 01 00:57:39
  TRACK 45 AUDIO
    TITLE "4:cjc044_1339"
    INDEX 01 00:58:20
  TRACK 46 AUDIO
    TITLE "0:"
    INDEX 01 00:59:49
  TRACK 47 AUDIO
    TITLE "5:cjc044_1340"
    INDEX 01 01:00:29
  TRACK 48 AUDIO
    TITLE "0:"
    INDEX 01 01:04:03
  TRACK 49 AUDIO
    TITLE "2:cjc044_1341"
    INDEX 01 01:05:66
  TRACK 50 AUDIO
    TITLE "0:"
    INDEX 01 01:06:67
  TRACK 51 AUDIO
    TITLE "3:cjc044_1342"
    INDEX 01 01:07:49
  TRACK 52 AUDIO
    TITLE "0:"
    INDEX 01 01:08:66
  TRACK 53 AUDIO
    TITLE "4:cjc044_1343"
    INDEX 01 01:09:50
  TRACK 54 AUDIO
    TITLE "0:"
    INDEX 01 01:10:51
  TRACK 55 AUDIO
    TITLE "5:cjc044_1344"
    INDEX 01 01:11:31
  TRACK 56 AUDIO
    TITLE "0:"
    INDEX 01 01:14:33
  TRACK 57 AUDIO
    TITLE "2:cjc044_1345"
    INDEX 01 01:16:12
  TRACK 58 AUDIO
    TITLE "0:"
    INDEX 01 01:17:32
  TRACK 59 AUDIO
    TITLE "3:cjc044_1346"
    INDEX 01 01:18:17
  TRACK 60 AUDIO
    TITLE "0:"
    INDEX 01 01:19:30
  TRACK 61 AUDIO
    TITLE "4:cjc044_1347"
    INDEX 01 01:20:16
  TRACK 62 AUDIO
    TITLE "0:"
    INDEX 01 01:21:33
  TRACK 63 AUDIO
    TITLE "5:cjc044_1348"
    INDEX 01 01:22:03
  TRACK 64 AUDIO
    TITLE "0:"
    INDEX 01 01:25:08
